#N canvas -69 75 1440 705 10;
#X obj 466 154 noise~;
#X obj 466 190 *~;
#X obj 548 170 vsl 21 50 20 2000 0 0 empty empty empty 0 -9 0 10 -66577
-107262 -1 800 1;
#X obj 519 269 dac~;
#X obj 398 199 vline~;
#X obj 466 216 *~;
#X obj 116 683 osc~;
#X obj 116 661 vline~;
#X obj 116 800 dac~;
#X obj 116 714 *~;
#X obj 116 91 tgl 21 0 empty empty empty 17 7 0 10 -128992 -172990
-1 0 1;
#X obj 299 697 vline~;
#X msg 143 112 60000;
#X obj 143 133 /;
#X floatatom 222 119 5 0 0 0 - - -, f 5;
#X floatatom 143 183 5 0 0 0 - - -, f 5;
#X text 264 119 BPM;
#X text 148 166 Time(ms);
#X text 49 92 Metrognohm;
#X obj 116 203 metro;
#X obj 372 112 metro;
#X obj 519 233 vcf~;
#X obj 518 137 vsl 21 50 0 1 0 0 empty empty empty 0 -9 0 10 -66577
-260550 -1 900 1;
#X obj 742 127 noise~;
#X obj 742 202 *~;
#X obj 735 256 dac~;
#X obj 654 205 vline~;
#X obj 742 222 *~;
#X obj 227 305 s hh;
#X obj 605 127 metro;
#X obj 116 773 *~;
#X obj 188 720 vsl 21 50 0 1 0 0 empty empty empty 0 -9 0 10 -66577
-260550 -1 4900 1;
#X obj 803 239 hip~;
#X obj 844 186 vsl 21 50 3500 20000 0 0 empty empty empty 0 -9 0 10
-66577 -107262 -1 4900 1;
#X obj 227 281 * 0.75;
#X obj 178 281 * 3.75;
#X msg 116 627 3230 0 0 \, 144 3 0 \, 43.7 30 3;
#X obj 31 220 f;
#X obj 68 221 + 1;
#X floatatom 31 240 5 0 0 0 - - -, f 5;
#X floatatom -8 281 5 0 0 0 - - -, f 5;
#X obj 282 305 s os;
#X obj 282 281 * 0.25;
#X obj 37 369 delay;
#X obj 76 346 r os;
#X obj 37 392 bng 15 250 50 0 empty empty empty 17 7 0 10 -162280 -172405
-1;
#X obj 37 342 bng 15 250 50 0 empty empty empty 17 7 0 10 -162280 -107262
-1;
#X obj -37 308 == 15;
#X obj 12 308 == 31;
#X obj -8 262 mod 32;
#X obj 68 325 spigot;
#X obj -48 375 delay;
#X obj -48 356 bng 15 250 50 0 empty empty empty 17 7 0 10 -162280
-107262 -1;
#X obj -51 333 spigot;
#X obj -51 220 bng 15 250 50 0 empty empty empty 17 7 0 10 -162280
-71224 -1;
#X obj 339 281 * 0.5;
#X obj 339 305 s hf;
#X obj -9 355 r hf;
#X obj 492 473 osc~;
#X obj 394 509 vline~;
#X obj 343 363 metro;
#X obj 492 496 *~;
#X obj 535 475 hsl 50 21 0 0.16 0 0 empty empty empty -2 -8 0 10 -66577
-260550 -1 1700 1;
#X obj 388 305 s t;
#X obj 492 549 dac~;
#X obj 343 112 tgl 15 0 empty empty empty 17 7 0 10 -66577 -4032 -1
0 1;
#X obj 492 526 *~;
#X obj 388 281 * 1.25;
#X msg 372 147 1 2 \, 0 50 2;
#X obj 791 149 vsl 21 50 0 0.2 0 0 empty empty empty 0 -9 0 10 -66577
-260550 -1 1225 1;
#X obj 828 161 / 100;
#X obj 848 373 hsl 75 21 0 127 0 0 empty empty empty -2 -8 0 10 -66577
-105766 -1 1400 1;
#X obj 947 373 hsl 75 21 0 127 0 0 empty empty empty -2 -8 0 10 -66577
-84639 -1 0 1;
#X obj 909 454 *~;
#X obj 909 569 dac~;
#X obj 845 409 mtof;
#X obj 944 406 mtof;
#X floatatom 1011 423 5 0 0 0 - - -, f 5;
#X floatatom 897 426 5 0 0 0 - - -, f 5;
#X obj 944 437 osc~;
#X obj 845 437 osc~;
#X obj 950 461 vsl 21 72 0 1 0 0 empty empty empty 0 -9 0 10 -66577
-260550 -1 2900 1;
#X text 844 349 Carrier;
#X text 944 349 Modulator;
#X text 912 516 Gain;
#X text 894 406 Freq;
#X text 1009 404 Freq;
#X obj 909 536 *~;
#X obj 909 480 *~;
#X obj 740 463 vline~;
#X obj 715 342 metro;
#X obj 228 197 s one;
#X obj 740 397 delay;
#X obj 740 366 bng 15 250 50 0 empty empty empty 17 7 0 10 -66577 -261249
-1;
#X obj 767 350 r hf;
#X obj 740 419 bng 15 250 50 0 empty empty empty 17 7 0 10 -66577 -260097
-1;
#X msg 31 185 0;
#X obj 881 144 random 10;
#X text 487 354 TONE;
#X text 472 93 NOISE PERC;
#X text 814 121 HI_HATZ;
#X text 186 687 KICK;
#X text 904 326 AM BASS;
#X obj 116 327 tgl 15 0 empty empty empty 17 7 0 10 -66577 -260550
-1 0 1;
#X text 195 86 *First Set Tempo*;
#X msg 343 476 1 5 \, 0.6 60 5 \, 0 60 65;
#X obj 568 112 tgl 15 0 empty empty empty 17 7 0 10 -66577 -209047
-1 0 1;
#X msg 654 144 1 2 \, 0 30 2;
#X obj 1059 176 noise~;
#X obj 1059 204 *~;
#X obj 1124 312 vsl 21 50 20 2000 0 0 empty empty empty 0 -9 0 10 -66577
-107262 -1 1700 1;
#X obj 991 211 vline~;
#X obj 1059 228 *~;
#X obj 965 112 metro;
#X obj 1059 365 vcf~, f 6;
#X obj 1111 151 vsl 21 50 0 1 0 0 empty empty empty 0 -9 0 10 -66577
-260550 -1 500 1;
#X obj 1006 95 r t;
#X obj 441 305 s t;
#X obj 178 305 s prc;
#X obj 413 95 r prc;
#X text 1196 93 SNARE;
#X msg 585 216 15;
#X obj 767 375 +;
#X obj 782 327 random 20;
#X obj 929 112 tgl 15 0 empty empty empty 17 7 0 10 -66577 -260550
-1 0 1;
#X obj 1234 203 osc~;
#X obj 1366 401 *~;
#X obj 1191 152 vline~;
#X obj 1381 247 vline~;
#X obj 1265 288 *~;
#X obj 1307 181 vsl 21 50 0 1 0 0 empty empty empty 0 -9 0 10 -66577
-260550 -1 2800 1;
#X obj 1121 418 dac~;
#X obj 441 281 * 2;
#X obj 1545 214 delay;
#X obj 1572 192 +;
#X obj 1587 144 random 10;
#X obj 1545 256 bng 15 250 50 0 empty empty empty 17 7 0 10 -162280
-172990 -1;
#X obj 1545 129 bng 15 250 50 0 empty empty empty 17 7 0 10 -162280
-209047 -1;
#X obj 1307 129 bng 15 250 50 0 empty empty empty 17 7 0 10 -162280
-261249 -1;
#X obj 1572 167 r os;
#X obj 1614 214 delay;
#X obj 1641 192 +;
#X obj 1656 144 random 10;
#X obj 1641 167 r hf;
#X obj 1656 127 bng 15 250 50 0 empty empty empty 17 7 0 10 -162280
-84639 -1;
#X obj 1545 110 moses 5;
#X obj 1307 93 random 10;
#X msg 1191 129 8000 0 \, 144 6 0;
#X msg 1162 348 21;
#X msg 965 129 1 2 \, 0.4 20 2 \, 0 50 22;
#X obj 1111 129 bng 15 250 50 0 empty empty empty 17 7 0 10 -162280
-261249 -1;
#X msg 1162 271 0.2;
#X msg 740 438 1 30 \, 0 250 30;
#X msg 299 627 0.5 2 0 \, 0.8 2 2 \, 0.2 5 4 \, 0.6 12 9 \, 0.7 30
21 \, 0.4 20 51 \, 0 61 71, f 89;
#X floatatom 389 442 5 0 100 0 - - -, f 5;
#X text 387 423 Swing;
#X msg 1337 271 0.02;
#X msg 1381 129 1 4 0 \, 0 30 4;
#X msg 531 380 2;
#X obj 531 416 pow;
#X floatatom 560 380 5 0 12 0 - - -, f 5;
#X floatatom 531 436 5 0 0 0 - - -, f 5;
#X obj 492 450 *;
#X obj 492 389 vsl 21 50 43.7 500 0 0 empty empty empty 0 -9 0 10 -66577
-71224 -1 1100 1;
#X obj 560 399 / 12;
#X obj 383 346 r hh;
#X obj 1484 114 bng 15 250 50 0 empty empty empty 17 7 0 10 -162280
-172990 -1;
#X obj 343 456 pipe;
#X obj 618 394 mod 6;
#X floatatom 618 415 5 0 0 0 - - -, f 5;
#X obj 618 437 moses 5;
#X msg 618 484 0;
#X obj 681 454 bng 15 250 50 0 empty empty empty 17 7 0 10 -262144
-1 -1;
#X obj 618 462 bng 15 250 50 0 empty empty empty 17 7 0 10 -262144
-1 -1;
#X obj 658 473 random 5;
#X obj 742 306 r one;
#X obj 1071 685 osc~;
#X obj 1054 659 vline~;
#X obj 1054 594 metro;
#X obj 1071 783 dac~;
#X obj 1071 714 *~;
#X obj 1071 748 *~;
#X obj 1192 690 vline~;
#X obj 1026 649 vsl 21 50 0 1 0 0 empty empty empty 0 -9 0 10 -66577
-260550 -1 2600 1;
#X msg 1192 611 1 3 \, 0 60 3;
#X obj 53 261 s cm;
#X obj 618 367 r cm;
#X obj 1054 484 r cm;
#X floatatom 1054 506 5 0 0 0 - - -, f 5;
#X obj 1054 527 mod 4;
#X obj 1054 555 == 0;
#X msg 1054 637 3230 0 \, 80 3 0 \, 144 60 3;
#X obj 632 105 r hh;
#X obj 1110 577 r hh;
#X text 1105 488 TOM TOM;
#X obj 1008 572 tgl 22 0 empty empty empty 17 7 0 10 -66577 -260550
-1 0 1;
#X text 1138 184 Noise;
#X text 1334 194 Snap;
#X text 199 44 All yellow faders are GAIN;
#X text 557 240 Click 15 to activate FILTER;
#X text 1117 372 Click 21 to activate FILTER;
#X msg 1210 348 0;
#X connect 0 0 1 0;
#X connect 1 0 5 0;
#X connect 2 0 21 1;
#X connect 4 0 5 1;
#X connect 5 0 21 0;
#X connect 6 0 9 0;
#X connect 7 0 6 0;
#X connect 9 0 30 0;
#X connect 10 0 12 0;
#X connect 10 0 19 0;
#X connect 10 0 20 0;
#X connect 10 0 65 0;
#X connect 10 0 103 0;
#X connect 10 0 106 0;
#X connect 10 0 113 0;
#X connect 10 0 124 0;
#X connect 10 0 96 0;
#X connect 11 0 9 1;
#X connect 12 0 13 0;
#X connect 13 0 15 0;
#X connect 14 0 13 1;
#X connect 15 0 19 1;
#X connect 15 0 34 0;
#X connect 15 0 35 0;
#X connect 15 0 42 0;
#X connect 15 0 55 0;
#X connect 15 0 67 0;
#X connect 15 0 91 0;
#X connect 15 0 132 0;
#X connect 19 0 36 0;
#X connect 19 0 153 0;
#X connect 19 0 37 0;
#X connect 19 0 50 0;
#X connect 19 0 54 0;
#X connect 20 0 68 0;
#X connect 21 0 3 0;
#X connect 21 0 3 1;
#X connect 22 0 1 1;
#X connect 23 0 24 0;
#X connect 24 0 27 0;
#X connect 26 0 27 1;
#X connect 27 0 32 0;
#X connect 29 0 107 0;
#X connect 29 0 97 0;
#X connect 30 0 8 0;
#X connect 30 0 8 1;
#X connect 31 0 30 1;
#X connect 32 0 25 0;
#X connect 32 0 25 1;
#X connect 33 0 32 1;
#X connect 34 0 28 0;
#X connect 35 0 118 0;
#X connect 36 0 7 0;
#X connect 37 0 39 0;
#X connect 37 0 38 0;
#X connect 38 0 37 1;
#X connect 39 0 49 0;
#X connect 39 0 185 0;
#X connect 40 0 47 0;
#X connect 40 0 48 0;
#X connect 42 0 41 0;
#X connect 43 0 45 0;
#X connect 44 0 43 1;
#X connect 45 0 36 0;
#X connect 45 0 153 0;
#X connect 46 0 43 0;
#X connect 47 0 53 1;
#X connect 48 0 50 1;
#X connect 49 0 40 0;
#X connect 50 0 46 0;
#X connect 51 0 45 0;
#X connect 52 0 51 0;
#X connect 53 0 52 0;
#X connect 54 0 53 0;
#X connect 55 0 56 0;
#X connect 57 0 51 1;
#X connect 58 0 61 0;
#X connect 59 0 66 1;
#X connect 60 0 167 0;
#X connect 60 0 158 0;
#X connect 60 0 163 0;
#X connect 61 0 66 0;
#X connect 62 0 61 1;
#X connect 65 0 60 0;
#X connect 66 0 64 0;
#X connect 66 0 64 1;
#X connect 67 0 63 0;
#X connect 68 0 4 0;
#X connect 69 0 24 1;
#X connect 70 0 69 0;
#X connect 71 0 75 0;
#X connect 72 0 76 0;
#X connect 73 0 88 0;
#X connect 75 0 78 0;
#X connect 75 0 80 0;
#X connect 76 0 77 0;
#X connect 76 0 79 0;
#X connect 79 0 73 1;
#X connect 80 0 73 0;
#X connect 81 0 87 1;
#X connect 87 0 74 0;
#X connect 87 0 74 1;
#X connect 88 0 87 0;
#X connect 89 0 88 1;
#X connect 90 0 93 0;
#X connect 92 0 95 0;
#X connect 93 0 123 0;
#X connect 93 0 92 0;
#X connect 94 0 122 0;
#X connect 95 0 152 0;
#X connect 96 0 37 0;
#X connect 97 0 70 0;
#X connect 103 0 90 0;
#X connect 105 0 59 0;
#X connect 106 0 29 0;
#X connect 107 0 26 0;
#X connect 108 0 109 0;
#X connect 109 0 112 0;
#X connect 110 0 114 1;
#X connect 111 0 112 1;
#X connect 112 0 114 0;
#X connect 113 0 149 0;
#X connect 113 0 147 0;
#X connect 113 0 157 0;
#X connect 113 0 138 0;
#X connect 113 0 150 0;
#X connect 114 0 131 0;
#X connect 114 0 131 1;
#X connect 114 1 131 0;
#X connect 114 1 131 1;
#X connect 115 0 109 1;
#X connect 116 0 113 1;
#X connect 119 0 20 1;
#X connect 121 0 21 2;
#X connect 122 0 92 1;
#X connect 123 0 122 1;
#X connect 124 0 113 0;
#X connect 125 0 129 0;
#X connect 126 0 131 0;
#X connect 126 0 131 1;
#X connect 127 0 125 0;
#X connect 128 0 126 1;
#X connect 129 0 126 0;
#X connect 130 0 129 1;
#X connect 132 0 117 0;
#X connect 133 0 136 0;
#X connect 134 0 133 1;
#X connect 135 0 134 1;
#X connect 136 0 156 0;
#X connect 136 0 151 0;
#X connect 136 0 166 0;
#X connect 137 0 135 0;
#X connect 137 0 133 0;
#X connect 137 0 142 0;
#X connect 138 0 130 0;
#X connect 138 0 146 0;
#X connect 139 0 134 0;
#X connect 140 0 136 0;
#X connect 141 0 140 1;
#X connect 142 0 141 1;
#X connect 143 0 141 0;
#X connect 144 0 142 0;
#X connect 144 0 140 0;
#X connect 145 0 137 0;
#X connect 145 1 144 0;
#X connect 146 0 145 0;
#X connect 147 0 127 0;
#X connect 148 0 114 2;
#X connect 149 0 111 0;
#X connect 150 0 115 0;
#X connect 151 0 109 1;
#X connect 152 0 89 0;
#X connect 153 0 11 0;
#X connect 154 0 167 1;
#X connect 156 0 129 1;
#X connect 157 0 128 0;
#X connect 158 0 159 0;
#X connect 159 0 161 0;
#X connect 160 0 164 0;
#X connect 161 0 162 1;
#X connect 162 0 58 0;
#X connect 163 0 162 0;
#X connect 164 0 159 1;
#X connect 165 0 60 1;
#X connect 166 0 147 0;
#X connect 166 0 157 0;
#X connect 166 0 149 0;
#X connect 167 0 105 0;
#X connect 168 0 169 0;
#X connect 169 0 170 0;
#X connect 170 0 173 0;
#X connect 170 1 172 0;
#X connect 171 0 160 0;
#X connect 172 0 174 0;
#X connect 173 0 171 0;
#X connect 174 0 160 0;
#X connect 175 0 90 1;
#X connect 176 0 180 0;
#X connect 177 0 176 0;
#X connect 178 0 184 0;
#X connect 178 0 191 0;
#X connect 180 0 181 0;
#X connect 181 0 179 0;
#X connect 181 0 179 1;
#X connect 182 0 181 1;
#X connect 183 0 180 1;
#X connect 184 0 182 0;
#X connect 186 0 168 0;
#X connect 187 0 188 0;
#X connect 188 0 189 0;
#X connect 189 0 190 0;
#X connect 190 0 195 0;
#X connect 191 0 177 0;
#X connect 192 0 29 1;
#X connect 193 0 178 1;
#X connect 195 0 178 0;
#X connect 201 0 114 2;
