#N canvas 723 126 708 458 10;
#N canvas 0 22 696 348 (subpatch) 0;
#X array Sampler 291378 float 2;
#X coords 0 1 291378 -1 200 140 1 0 0;
#X restore 376 155 graph;
#X obj 91 337 dac~;
#X obj 113 -39 soundfiler;
#X floatatom 82 -13 10 0 1e+07 0 - - -, f 10;
#X msg 113 -67 read -resize /Users/mac/Desktop/soul_pride.wav Sampler
;
#X obj 305 213 vsl 15 78 0 1 0 0 empty empty empty 0 -9 0 10 -66577
-261249 -1 0 1;
#X obj 125 234 vline~;
#X obj 91 270 tabread4~ Sampler;
#X obj 67 235 +~ 1;
#X msg 159 181 0 \, 291378 6000;
#X obj 91 294 *~;
#X obj 113 10 expr 44100/$f1;
#X floatatom 113 58 5 0 0 0 - - -, f 5;
#X obj 113 93 *;
#X obj 353 41 t b f;
#X obj 419 22 hsl 100 19 -2 2 0 0 empty empty empty -2 -8 0 10 -70120
-262144 -1 7425 1;
#X floatatom 425 49 5 0 0 0 - - -, f 5;
#X obj 67 206 *~;
#X msg 159 204 291378 \, 0 6000;
#X text 532 24 Playback Rate;
#X text 455 -65 Load Audio File;
#X text 303 197 Gain;
#X msg 416 -19 1;
#X obj 462 -36 loadbang;
#X obj 420 77 hsl 100 17 0 1 0 0 empty empty empty -2 -8 0 10 -162280
-107262 -1 0 1;
#X obj 420 103 hsl 100 17 0 1 0 0 empty empty empty -2 -8 0 10 -162280
-209047 -1 9900 1;
#X obj 247 94 t b f;
#X floatatom 293 120 5 0 0 0 - - -, f 5;
#X obj 259 134 -;
#X obj 113 151 *~;
#X obj 113 184 +~;
#X obj 113 118 phasor~;
#X obj 251 -14 expr 1 / $f2;
#X obj 251 35 *;
#X floatatom 271 8 5 0 0 0 - - -, f 5;
#X floatatom 113 32 5 0 0 0 - - -, f 5;
#X text 528 78 Start point;
#X text 523 105 End pint;
#X obj 259 162 send l;
#X obj 251 -46 receive l;
#X connect 2 0 3 0;
#X connect 3 0 11 0;
#X connect 3 0 17 1;
#X connect 4 0 2 0;
#X connect 5 0 10 1;
#X connect 7 0 10 0;
#X connect 8 0 7 0;
#X connect 9 0 6 0;
#X connect 10 0 1 0;
#X connect 10 0 1 1;
#X connect 11 0 33 1;
#X connect 11 0 35 0;
#X connect 12 0 13 0;
#X connect 13 0 31 0;
#X connect 14 0 12 0;
#X connect 14 1 13 1;
#X connect 15 0 14 0;
#X connect 15 0 16 0;
#X connect 17 0 8 0;
#X connect 18 0 6 0;
#X connect 22 0 15 0;
#X connect 23 0 22 0;
#X connect 24 0 26 0;
#X connect 25 0 27 0;
#X connect 26 0 27 0;
#X connect 26 1 28 1;
#X connect 26 1 30 1;
#X connect 27 0 28 0;
#X connect 28 0 29 1;
#X connect 28 0 38 0;
#X connect 29 0 30 0;
#X connect 30 0 17 0;
#X connect 31 0 29 0;
#X connect 32 0 33 0;
#X connect 32 0 34 0;
#X connect 33 0 12 0;
#X connect 39 0 32 1;
#X connect 39 0 32 0;
#X coords 0 0 3 1 0 0 0;
