#N canvas 152 159 1132 752 10;
#X obj 247 512 osc~;
#X obj 153 222 hsl 75 21 20 4000 0 0 fun empty Fundamental -2 -8 0
10 -66577 -172990 -1 1200 1;
#X obj 247 605 *~;
#X obj 349 584 hsl 128 21 0 1 0 1 empty empty Volume -2 -8 0 10 -66577
-261249 -1 2200 1;
#X obj 247 567 *~;
#X obj 132 550 vline~;
#X obj 247 653 dac~;
#X obj 87 57 tgl 21 0 empty empty empty 17 7 0 10 -66577 -105766 -1
0 1;
#X floatatom 364 378 5 0 0 0 - - -, f 5;
#X obj 150 109 f;
#X obj 181 109 + 1;
#X floatatom 107 167 5 0 0 0 - - -, f 5;
#X obj 150 150 mod 8;
#X obj 439 392 *;
#X floatatom 472 378 5 0 0 0 - - -, f 5;
#X obj 558 392 *;
#X floatatom 591 378 5 0 0 0 - - -, f 5;
#X obj 250 181 moses 1;
#X obj 331 181 moses 2;
#X obj 439 181 moses 3;
#X obj 558 181 moses 4;
#X obj 657 181 moses 5;
#X obj 760 181 moses 6;
#X obj 869 181 moses 7;
#X obj 982 181 moses 8;
#X obj 657 392 *;
#X floatatom 690 378 5 0 0 0 - - -, f 5;
#X obj 760 392 *;
#X floatatom 793 378 5 0 0 0 - - -, f 5;
#X obj 869 392 *;
#X floatatom 902 378 5 0 0 0 - - -, f 5;
#X obj 982 392 *;
#X floatatom 1015 378 5 0 0 0 - - -, f 5;
#X obj 150 181 bng 15 250 50 0 empty empty empty 17 7 0 10 -33289 -4032
-1;
#X obj 250 392 * 1;
#X obj 250 235 bng 21 250 50 0 empty empty empty 17 7 0 10 -128992
-214163 -1;
#X obj 331 392 *;
#X obj 331 235 bng 21 250 50 0 empty empty empty 17 7 0 10 -128992
-260550 -1;
#X obj 439 235 bng 21 250 50 0 empty empty empty 17 7 0 10 -128992
-261249 -1;
#X obj 558 235 bng 21 250 50 0 empty empty empty 17 7 0 10 -128992
-84639 -1;
#X obj 982 235 bng 21 250 50 0 empty empty empty 17 7 0 10 -128992
-209047 -1;
#X obj 657 235 bng 21 250 50 0 empty empty empty 17 7 0 10 -128992
-71224 -1;
#X obj 760 235 bng 21 250 50 0 empty empty empty 17 7 0 10 -128992
-107262 -1;
#X obj 869 235 bng 21 250 50 0 empty empty empty 17 7 0 10 -128992
-172405 -1;
#X obj 331 332 r fun;
#X obj 439 332 r fun;
#X obj 558 332 r fun;
#X obj 657 332 r fun;
#X obj 760 332 r fun;
#X obj 869 332 r fun;
#X obj 982 332 r fun;
#X msg 364 281 2;
#X msg 472 281 2;
#X msg 591 281 2;
#X msg 690 281 2;
#X msg 793 281 2;
#X msg 902 281 2;
#X msg 1015 281 2;
#X msg 71 458 1 4 0 \, 0.3 40 4 \, 0 50 44;
#X obj 250 409 s harm;
#X obj 331 409 s harm;
#X obj 439 409 s harm;
#X obj 558 409 s harm;
#X obj 657 409 s harm;
#X obj 760 409 s harm;
#X obj 869 409 s harm;
#X obj 982 409 s harm;
#X obj 316 529 *~;
#X obj 247 484 r harm;
#X obj 376 483 r fun;
#X obj 376 512 osc~;
#X floatatom 400 256 5 0 12 0 - - -, f 5;
#X floatatom 400 333 5 0 0 0 - - -, f 5;
#X obj 400 306 / 12;
#X floatatom 503 256 5 0 12 0 - - -, f 5;
#X floatatom 503 335 5 0 0 0 - - -, f 5;
#X obj 503 308 / 12;
#X floatatom 619 256 5 0 12 0 - - -, f 5;
#X floatatom 619 331 5 0 0 0 - - -, f 5;
#X obj 619 304 / 12;
#X floatatom 722 256 5 0 12 0 - - -, f 5;
#X floatatom 722 330 5 0 0 0 - - -, f 5;
#X obj 722 303 / 12;
#X floatatom 831 256 5 0 12 0 - - -, f 5;
#X floatatom 831 329 5 0 0 0 - - -, f 5;
#X obj 831 302 / 12;
#X floatatom 941 256 5 0 12 0 - - -, f 5;
#X floatatom 941 328 5 0 0 0 - - -, f 5;
#X obj 941 301 / 12;
#X floatatom 1051 256 5 0 12 0 - - -, f 5;
#X floatatom 1051 322 5 0 0 0 - - -, f 5;
#X obj 1051 299 / 12;
#X obj 364 356 pow;
#X obj 472 356 pow;
#X obj 591 354 pow;
#X obj 690 356 pow;
#X obj 793 355 pow;
#X obj 902 355 pow;
#X obj 1015 354 pow;
#X text 1048 235 Step;
#X text 399 237 Step;
#X text 502 235 Step;
#X text 618 235 Step;
#X text 720 236 Step;
#X text 829 236 Step;
#X text 939 234 Step;
#X obj 71 92 metro 132;
#X msg 244 94 \; pd dsp 1;
#X msg 315 94 \; pd dsp 0;
#X obj 244 53 bng 21 250 50 0 empty empty empty 17 7 0 10 -66577 -28073
-1;
#X obj 315 53 bng 21 250 50 0 empty empty empty 17 7 0 10 -66577 -214163
-1;
#X text 469 9 Guide: CMD + E to toggle between Edit & Run Mode;
#X text 469 36 1 Turn DSP ON;
#X text 469 56 2 Set Fundamental Frequency;
#X text 469 75 3 Set Steps (Transposition) 1 Step = 1 Semi-tone;
#X text 469 93 4 Raise Volume;
#X text 469 110 5 Toggle the Metronome;
#X text 469 127 6 Behold - Equal Temperment in all its glory \; and
limitation.;
#X floatatom 150 280 5 0 0 0 - - -, f 5;
#X floatatom 378 409 5 0 0 0 - - -, f 5;
#X floatatom 486 409 5 0 0 0 - - -, f 5;
#X floatatom 605 409 5 0 0 0 - - -, f 5;
#X floatatom 704 409 5 0 0 0 - - -, f 5;
#X floatatom 807 409 5 0 0 0 - - -, f 5;
#X floatatom 916 409 5 0 0 0 - - -, f 5;
#X floatatom 1029 409 5 0 0 0 - - -, f 5;
#X connect 0 0 67 0;
#X connect 1 0 118 0;
#X connect 2 0 6 0;
#X connect 2 0 6 1;
#X connect 3 0 2 1;
#X connect 4 0 2 0;
#X connect 5 0 4 1;
#X connect 7 0 106 0;
#X connect 8 0 36 1;
#X connect 9 0 10 0;
#X connect 9 0 12 0;
#X connect 10 0 9 1;
#X connect 11 0 33 0;
#X connect 11 0 17 0;
#X connect 12 0 11 0;
#X connect 13 0 61 0;
#X connect 13 0 120 0;
#X connect 14 0 13 1;
#X connect 15 0 62 0;
#X connect 15 0 121 0;
#X connect 16 0 15 1;
#X connect 17 0 35 0;
#X connect 17 1 18 0;
#X connect 18 0 37 0;
#X connect 18 1 19 0;
#X connect 19 0 38 0;
#X connect 19 1 20 0;
#X connect 20 0 39 0;
#X connect 20 1 21 0;
#X connect 21 0 41 0;
#X connect 21 1 22 0;
#X connect 22 0 42 0;
#X connect 22 1 23 0;
#X connect 23 0 43 0;
#X connect 23 1 24 0;
#X connect 24 0 40 0;
#X connect 25 0 63 0;
#X connect 25 0 122 0;
#X connect 26 0 25 1;
#X connect 27 0 64 0;
#X connect 27 0 123 0;
#X connect 28 0 27 1;
#X connect 29 0 65 0;
#X connect 29 0 124 0;
#X connect 30 0 29 1;
#X connect 31 0 66 0;
#X connect 31 0 125 0;
#X connect 32 0 31 1;
#X connect 33 0 1 0;
#X connect 34 0 59 0;
#X connect 35 0 34 0;
#X connect 36 0 60 0;
#X connect 36 0 119 0;
#X connect 37 0 71 0;
#X connect 37 0 51 0;
#X connect 37 0 36 0;
#X connect 38 0 74 0;
#X connect 38 0 52 0;
#X connect 38 0 13 0;
#X connect 39 0 77 0;
#X connect 39 0 53 0;
#X connect 39 0 15 0;
#X connect 40 0 89 0;
#X connect 40 0 57 0;
#X connect 40 0 31 0;
#X connect 41 0 80 0;
#X connect 41 0 54 0;
#X connect 41 0 25 0;
#X connect 42 0 83 0;
#X connect 42 0 55 0;
#X connect 42 0 27 0;
#X connect 43 0 86 0;
#X connect 43 0 56 0;
#X connect 43 0 29 0;
#X connect 44 0 36 0;
#X connect 45 0 13 0;
#X connect 46 0 15 0;
#X connect 47 0 25 0;
#X connect 48 0 27 0;
#X connect 49 0 29 0;
#X connect 50 0 31 0;
#X connect 51 0 92 0;
#X connect 52 0 93 0;
#X connect 53 0 94 0;
#X connect 54 0 95 0;
#X connect 55 0 96 0;
#X connect 56 0 97 0;
#X connect 57 0 98 0;
#X connect 58 0 5 0;
#X connect 67 0 4 0;
#X connect 68 0 0 0;
#X connect 69 0 70 0;
#X connect 70 0 67 1;
#X connect 71 0 73 0;
#X connect 72 0 92 1;
#X connect 73 0 72 0;
#X connect 74 0 76 0;
#X connect 75 0 93 1;
#X connect 76 0 75 0;
#X connect 77 0 79 0;
#X connect 78 0 94 1;
#X connect 79 0 78 0;
#X connect 80 0 82 0;
#X connect 81 0 95 1;
#X connect 82 0 81 0;
#X connect 83 0 85 0;
#X connect 84 0 96 1;
#X connect 85 0 84 0;
#X connect 86 0 88 0;
#X connect 87 0 97 1;
#X connect 88 0 87 0;
#X connect 89 0 91 0;
#X connect 90 0 98 1;
#X connect 91 0 90 0;
#X connect 92 0 8 0;
#X connect 93 0 14 0;
#X connect 94 0 16 0;
#X connect 95 0 26 0;
#X connect 96 0 28 0;
#X connect 97 0 30 0;
#X connect 98 0 32 0;
#X connect 106 0 58 0;
#X connect 106 0 9 0;
#X connect 109 0 107 0;
#X connect 110 0 108 0;
